<svg width="16" height="19" fill="none" xmlns="http://www.w3.org/2000/svg"><path d="M0 8A7.6 7.6 0 0 1 4.9.9a7.8 7.8 0 0 1 6.1 0A7.8 7.8 0 0 1 15.8 8c0 1.7-.5 3.2-1.5 4.5a7.8 7.8 0 0 1-4 2.8v3.5H5.7v-3.5A7.8 7.8 0 0 1 0 8Zm1.7 0c0 1.6.6 3 1.9 4.2a6 6 0 0 0 4.3 1.7 6.1 6.1 0 0 0 6.2-6 6 6 0 0 0-3.8-5.5 6.2 6.2 0 0 0-4.8 0A6.1 6.1 0 0 0 1.7 8Zm.7.3v-.7h2.3v.7H2.4Zm1.1-3.7.6-.5 1.7 1.6-.6.5-1.7-1.6Zm2.8 5.2c0-.4.1-.8.5-1.1.3-.4.7-.5 1.1-.5l3-4.8.7.4-2.2 5 .3 1c0 .5-.2.9-.5 1.2-.4.3-.8.5-1.2.5a1.6 1.6 0 0 1-1.7-1.7Zm1.4-5V2.7h.8V5h-.8Zm3.2 3.5v-.7h2.3v.7H11Z" fill="#D9E4FF"/></svg>