<svg width="10" height="15" viewBox="0 0 10 15" fill="none" xmlns="http://www.w3.org/2000/svg">
<path d="M0.822455 5.32501C0.813562 5.63625 0.911382 5.90304 1.12481 6.12536C1.33823 6.34767 1.59612 6.45439 1.91626 6.44549C2.21861 6.46328 2.4765 6.35657 2.69882 6.11646L4.17501 4.65805L4.17501 13.8176C4.16612 14.1288 4.27283 14.3867 4.49515 14.6001C4.71747 14.8136 4.98425 14.9114 5.31328 14.9025C5.61564 14.9203 5.88242 14.8224 6.10474 14.6179C6.32706 14.4134 6.45155 14.1466 6.46045 13.8354L6.46045 4.67584L7.91885 6.13425C8.12339 6.34767 8.39017 6.46328 8.70142 6.46328C9.02155 6.46328 9.28833 6.35657 9.50176 6.14314C9.71519 5.92972 9.8219 5.67183 9.8219 5.35169C9.80411 5.03155 9.68851 4.78255 9.46619 4.59581L6.14031 1.181C5.92688 0.976463 5.65121 0.851965 5.32218 0.825287C4.99315 0.843072 4.71747 0.96757 4.50405 1.18989L1.16927 4.57802C0.93806 4.77366 0.822455 5.02266 0.822455 5.32501Z" fill="#D9E4FF"/>
</svg>
