<svg xmlns="http://www.w3.org/2000/svg" width="14" height="19" fill="none">
    <path fill="#D9E4FF" d="M0 11.7c0-.8.2-1.7.7-2.8.4-1 1-2 1.7-3 1.5-2 2.8-3.4 3.9-4.3L7 .9l.8.7a43 43 0 0 1 3.8 4.3c.7 1 1.2 2 1.7 3s.7 2 .7 2.8c0 1-.2 1.8-.5 2.6A6.8 6.8 0 0 1 7 18.5a7 7 0 0 1-6.4-4.1c-.4-.8-.6-1.7-.6-2.7ZM2.1 9c0 .8.2 1.4.5 1.8.4.5.9.7 1.5.7.7 0 1.2-.2 1.5-.7.4-.4.5-1 .6-1.8 0-.8-.2-1.4-.6-1.8-.3-.5-.8-.7-1.5-.7-.6 0-1.1.2-1.5.7A3 3 0 0 0 2.1 9Zm1.5 0V8.1l.2-.2.1-.2h.5l.2.4V9.9c0
    .1 0 .3-.2.3l-.3.1H4l-.1-.2a1.3 1.3 0 0 1-.2-.5V9Zm.6 7.1h1.2l4.7-9.9H9l-4.7 10Zm4-2.7c0 .8.2 1.4.6 1.8.3.5.8.7 1.5.7.6 0 1.1-.2 1.5-.7
    .3-.4.5-1 .5-1.8a3 3 0 0 0-.5-1.9c-.4-.4-.9-.6-1.5-.6-.7 0-1.2.2-1.5.6a3 3 0 0 0-.6 1.9Zm1.5 0v-.9l.2-.4H10.5l.1.2.1.2v2l-.2.2H9.9l-.1-.4v-.9Z"/>
 </svg>