<svg width="12" height="12" viewBox="0 0 12 12" fill="none" xmlns="http://www.w3.org/2000/svg">
<path d="M0 5.70145C0 4.93112 0.152039 4.1912 0.451048 3.48675C0.750057 2.78231 1.16056 2.17922 1.66736 1.66736C2.17415 1.15549 2.78231 0.750057 3.48675 0.451048C4.1912 0.152038 4.92605 0 5.70145 0C6.47684 0 7.2117 0.152038 7.91614 0.451048C8.62059 0.750057 9.22874 1.16056 9.7406 1.66736C10.2525 2.17415 10.6579 2.78231 10.9569 3.48675C11.2559 4.1912 11.408 4.92605 11.408 5.70145C11.408 6.47684 11.2559 7.21169 10.9569 7.91614C10.6579 8.62059 10.2474 9.22874 9.7406 9.7406C9.23381 10.2525 8.62565 10.6579 7.91614 10.9569C7.20663 11.2559 6.47177 11.408 5.70145 11.408C4.93112 11.408 4.1912 11.2559 3.48675 10.9569C2.78231 10.6579 2.17922 10.2474 1.66736 9.7406C1.15549 9.23381 0.750057 8.62565 0.451048 7.91614C0.152039 7.20663 0 6.47684 0 5.70145ZM0.608154 5.70145C0.608154 6.37548 0.734853 7.01911 0.988251 7.63234C1.24165 8.24556 1.58627 8.77769 2.01704 9.22874C2.44782 9.67979 2.96475 10.0447 3.56277 10.3285C4.16079 10.6123 4.79428 10.7694 5.45818 10.8049C4.82976 10.2018 4.38885 9.472 4.13545 8.62059C3.88205 7.76917 3.75535 6.79612 3.75535 5.70145C3.75535 4.72333 3.91246 3.78576 4.2216 2.8938C4.53075 2.00184 4.96659 1.24165 5.519 0.613222C4.62197 0.648698 3.80096 0.897027 3.04584 1.35821C2.29071 1.81939 1.69776 2.43768 1.26192 3.20295C0.826076 3.96821 0.608154 4.80949 0.608154 5.70145Z" fill="white"/>
</svg>
