<svg width="63" height="36" viewBox="0 0 63 36" fill="none" xmlns="http://www.w3.org/2000/svg">
<path d="M0 22.6447C0 23.3223 0.238236 23.9153 0.741177 24.3953C1.16471 24.9318 1.72059 25.1859 2.40882 25.1859H41.2941C42.0618 25.1859 42.6971 25.4682 43.2265 26.0329C43.7559 26.5976 44.0206 27.3035 44.0206 28.1224C44.0206 28.9412 43.7559 29.6188 43.2265 30.1553C42.6971 30.6918 42.0618 30.9741 41.2677 30.9741C40.5 30.9741 39.8382 30.6918 39.3353 30.1553C38.9118 29.6471 38.3824 29.4212 37.7471 29.4212C37.0853 29.4212 36.5294 29.6753 36.0529 30.1553C35.5765 30.6353 35.3382 31.2282 35.3382 31.8776C35.3382 32.5835 35.5765 33.1765 36.0794 33.6565C37.5618 35.2094 39.3088 36 41.2677 36C43.3324 36 45.1059 35.2376 46.5882 33.7129C48.0706 32.1882 48.7853 30.3529 48.7853 28.1506C48.7853 25.9482 48.0441 24.0847 46.5618 22.5035C45.0794 20.9224 43.3059 20.1318 41.2677 20.1318H2.40882C1.74706 20.1318 1.19118 20.3859 0.714706 20.8659C0.238235 21.3459 0 21.9388 0 22.6447ZM0 13.3835C0 14.0329 0.238236 14.5976 0.741177 15.1059C1.19118 15.6141 1.74706 15.84 2.40882 15.84H55.4559C57.5206 15.84 59.2941 15.0776 60.7765 13.5247C62.2588 12 63 10.1365 63 7.96235C63 5.78824 62.2588 3.89647 60.7765 2.34353C59.2941 0.790588 57.5206 0 55.4559 0C53.4176 0 51.6971 0.762354 50.2941 2.25882C49.8176 2.71059 49.5794 3.33177 49.5794 4.15059C49.5794 4.88471 49.8176 5.47765 50.2677 5.92941C50.7176 6.38118 51.2735 6.60706 51.9353 6.60706C52.5706 6.60706 53.1265 6.38118 53.6029 5.92941C54.1059 5.33647 54.7147 5.05412 55.4559 5.05412C56.2235 5.05412 56.8588 5.33647 57.3882 5.90118C57.9177 6.46588 58.1824 7.14353 58.1824 7.96235C58.1824 8.78118 57.9177 9.45882 57.3882 9.99529C56.8588 10.5318 56.2235 10.8141 55.4559 10.8141H2.40882C1.74706 10.8141 1.19118 11.0682 0.714706 11.5482C0.238235 12.0847 0 12.6776 0 13.3835Z" fill="#A4BEFF"/>
</svg>
