<svg width="16" height="15" viewBox="0 0 16 15" fill="none" xmlns="http://www.w3.org/2000/svg">
<path d="M13.1913 13.521C13.06 13.521 12.9286 13.4726 12.8249 13.3758C12.6175 13.1753 12.6175 12.8504 12.818 12.6429C14.0003 11.4399 14.6502 9.84961 14.6502 8.16255C14.6502 4.63633 11.7808 1.76695 8.25462 1.76695C4.7284 1.76695 1.85902 4.63633 1.85902 8.16255C1.85902 9.84269 2.50204 11.426 3.67745 12.6291C3.87796 12.8365 3.87104 13.1615 3.67053 13.362C3.46311 13.5625 3.13814 13.5556 2.93763 13.3551C1.57554 11.9584 0.821899 10.1123 0.821899 8.16255C0.821899 4.06245 4.15453 0.729828 8.25462 0.729828C12.3547 0.729828 15.6873 4.06245 15.6873 8.16255C15.6873 10.1193 14.9337 11.9723 13.5578 13.3689C13.461 13.4726 13.3227 13.521 13.1913 13.521Z" fill="#D9E4FF"/>
<path d="M8.25396 14.7298C9.73559 14.7298 10.9367 13.5287 10.9367 12.0471C10.9367 10.5655 9.73559 9.36444 8.25396 9.36444C6.77238 9.36444 5.57129 10.5655 5.57129 12.0471C5.57129 13.5287 6.77238 14.7298 8.25396 14.7298Z" fill="#D9E4FF"/>
<path d="M11.0203 5.39688C10.2597 5.39688 9.63745 6.01916 9.63745 6.77972V7.29828C9.63745 7.77536 10.0246 8.16255 10.5017 8.16255H11.0203C11.7808 8.16255 12.4031 7.54027 12.4031 6.77972C12.4031 6.01916 11.7808 5.39688 11.0203 5.39688Z" fill="#D9E4FF"/>
</svg>
