<svg width="13" height="14" viewBox="0 0 13 14" fill="none" xmlns="http://www.w3.org/2000/svg">
<path d="M0 6.5C0 6.35311 0.0489642 6.22458 0.153013 6.12053C0.257062 6.0226 0.385593 5.97363 0.520245 5.97363H1.76883C1.9096 5.97363 2.02589 6.0226 2.12382 6.12665C2.21563 6.2307 2.26459 6.35311 2.26459 6.5C2.26459 6.64689 2.22175 6.7693 2.12994 6.87335C2.03814 6.9774 1.91572 7.02636 1.77495 7.02636H0.526365C0.385593 7.02636 0.263183 6.9774 0.159134 6.87335C0.0550849 6.7693 0 6.64689 0 6.5ZM1.75047 10.7415C1.75047 10.6008 1.79944 10.4783 1.89124 10.3682L2.79096 9.49294C2.88277 9.39501 3.00518 9.35217 3.15207 9.35217C3.29896 9.35217 3.42137 9.40113 3.5193 9.49294C3.61723 9.58475 3.6662 9.70103 3.6662 9.84181C3.6662 9.9887 3.61723 10.1234 3.5193 10.2335L2.65019 11.1026C2.39925 11.2985 2.1483 11.2985 1.89736 11.1026C1.79943 11.0047 1.75047 10.8823 1.75047 10.7415ZM1.75047 2.27072C1.75047 2.12994 1.79944 2.00753 1.89124 1.89736C2.01365 1.79331 2.14218 1.74435 2.28296 1.74435C2.41761 1.74435 2.54002 1.79331 2.64407 1.89124L3.5193 2.79096C3.61723 2.88277 3.6662 3.00518 3.6662 3.15207C3.6662 3.29896 3.61723 3.42137 3.5193 3.5193C3.42137 3.61723 3.29896 3.6662 3.15207 3.6662C3.00518 3.6662 2.88277 3.61723 2.79096 3.5193L1.89736 2.64407C1.79943 2.54614 1.75047 2.41761 1.75047 2.27072ZM3.3112 6.5C3.3112 5.93079 3.45198 5.3983 3.73964 4.90866C4.02731 4.41902 4.4129 4.02731 4.90866 3.73964C5.40443 3.45198 5.93079 3.3112 6.5 3.3112C6.92844 3.3112 7.33851 3.39689 7.73635 3.56827C8.12806 3.73964 8.47081 3.9661 8.75235 4.25377C9.04002 4.54143 9.26648 4.87806 9.43173 5.26977C9.59699 5.66149 9.68267 6.07768 9.68267 6.50612C9.68267 7.08145 9.5419 7.61393 9.25424 8.10358C8.96657 8.59322 8.58098 8.97881 8.09134 9.26648C7.60169 9.55414 7.06921 9.69491 6.49388 9.69491C5.91855 9.69491 5.38606 9.55414 4.89642 9.26648C4.40678 8.97881 4.02119 8.59322 3.73352 8.10358C3.4581 7.60781 3.3112 7.07533 3.3112 6.5ZM4.35169 6.5C4.35169 7.09981 4.55979 7.60782 4.98211 8.03013C5.3983 8.45245 5.90631 8.66667 6.50612 8.66667C7.10593 8.66667 7.61394 8.45245 8.03625 8.03013C8.45857 7.60782 8.67279 7.09981 8.67279 6.5C8.67279 5.91243 8.45857 5.41055 8.03625 4.98823C7.61394 4.57203 7.10593 4.36394 6.50612 4.36394C5.91243 4.36394 5.40443 4.57203 4.98823 4.98823C4.55979 5.41055 4.35169 5.91243 4.35169 6.5ZM5.97975 11.2618C5.97975 11.1149 6.02872 10.9925 6.13277 10.8945C6.23682 10.7966 6.35923 10.7476 6.5 10.7476C6.64689 10.7476 6.77542 10.7966 6.87335 10.8945C6.97128 10.9925 7.02024 11.1149 7.02024 11.2618V12.4798C7.02024 12.6266 6.97128 12.7552 6.86723 12.8592C6.76318 12.9633 6.64077 13.0122 6.5 13.0122C6.35923 13.0122 6.2307 12.9633 6.13277 12.8592C6.02872 12.7552 5.97975 12.6266 5.97975 12.4798V11.2618ZM5.97975 1.77495V0.526365C5.97975 0.385593 6.02872 0.263183 6.13277 0.159134C6.23682 0.0550849 6.35923 0 6.50612 0C6.65301 0 6.7693 0.0489642 6.87335 0.153013C6.9774 0.257062 7.02637 0.379473 7.02637 0.520245V1.77495C7.02637 1.91572 6.9774 2.03201 6.87335 2.12994C6.7693 2.22787 6.64689 2.27072 6.50612 2.27072C6.36535 2.27072 6.23682 2.22175 6.13889 2.12994C6.04096 2.03814 5.97975 1.91572 5.97975 1.77495ZM9.35829 9.84181C9.35829 9.70103 9.40725 9.58475 9.49906 9.49906C9.59087 9.40113 9.70716 9.35829 9.84181 9.35829C9.9887 9.35829 10.1111 9.40725 10.209 9.49906L11.1026 10.3743C11.2006 10.4783 11.2495 10.6069 11.2495 10.7476C11.2495 10.8884 11.2006 11.0108 11.1026 11.1088C10.8578 11.2985 10.613 11.2985 10.3682 11.1088L9.49906 10.2396C9.40725 10.1295 9.35829 10.0009 9.35829 9.84181ZM9.35829 3.15819C9.35829 3.00518 9.40725 2.88277 9.49906 2.79708L10.3682 1.89736C10.4722 1.79943 10.5946 1.75047 10.7293 1.75047C10.8762 1.75047 10.9986 1.79943 11.0965 1.90348C11.2006 2.00753 11.2495 2.12994 11.2495 2.27072C11.2495 2.42373 11.2006 2.55226 11.1026 2.65019L10.209 3.52542C10.0989 3.62335 9.97646 3.67232 9.84181 3.67232C9.70104 3.67232 9.59087 3.62335 9.49906 3.52542C9.40725 3.4275 9.35829 3.30508 9.35829 3.15819ZM10.7415 6.5C10.7415 6.35311 10.7905 6.2307 10.8884 6.12053C10.9863 6.0226 11.1026 5.97363 11.2373 5.97363H12.4736C12.6144 5.97363 12.7368 6.02872 12.8409 6.13277C12.9449 6.23682 13 6.35923 13 6.5C13 6.64077 12.9449 6.76318 12.8409 6.86723C12.7368 6.97128 12.6144 7.02024 12.4736 7.02024H11.2373C11.0965 7.02024 10.9741 6.97128 10.8823 6.86723C10.7905 6.76318 10.7415 6.64689 10.7415 6.5Z" fill="#FFDE2E"/>
</svg>
